Patient4_TMGait_0pt8_01_left_28_EMG.mot
version=1
nRows=23
nColumns=33
inDegrees=no
endheader
time	1LAddLong	2LGlutMax	3LGlutMed	4LIliopsoas	5LSemiMemb	6LBicFemLong	7LRecFem	8LVastMed	9LVastLat	10LGasMed	11LTibAnt	12lTibPost	13LPeroneusLong	14LSol	15LExtDigLong	16LFlexDigLong	17RAddLong	18RGlutMax	19RGlutMed	20RIliopsoas	21RSemiMemb	22RBicFemLong	23RRecFem	24RVastMed	25RVastLat	26RGasMed	27RTibAnt	28RTibPost	29RPeroneusLong	30RSol	31RExtDigLong	32RFlexDigLong
31.135	-0.014801	1.2483	0.028992	-0.011597	-0.002441	0.037079	-0.023956	-0.044708	-0.63263	0.008087	0.060883	-0.088806	-0.41199	-0.083771	-0.48889	0.103	0.11841	0.61432	0.6871	-0.13641	-0.041809	-0.034027	0.77789	-0.064392	-0.045319	-0.003357	0.053558	-0.036011	0.26093	-0.06546	-0.002289	-0.012817
31.136	-0.019379	1.2569	-0.067749	-0.014191	-0.011902	-0.006256	0.039673	-0.021515	-0.68649	0.028381	0.12558	-0.076599	-0.53207	-0.12695	-0.42862	0.12543	0.1207	0.55557	0.56549	-0.045471	-0.055847	-0.028992	0.74631	-0.14694	-0.062866	-0.005341	0.072784	-0.035095	0.26047	-0.029755	-0.007172	-0.006409
31.137	-0.035095	1.2038	0.048065	0.001831	-0.052185	-0.037384	0.098419	0.00473	-0.66376	0.048523	0.006866	-0.072479	0.17456	-0.01709	-0.48386	0.12253	0.16357	0.55054	-0.17395	0.12116	-0.063324	-0.04425	0.72281	-0.11276	-0.086365	0.001831	0.056	-0.030975	0.078888	-0.006256	-0.00061	-0.010376
31.138	-0.034943	1.1365	0.068359	0.025787	-0.081177	0.050049	0.087128	0.045929	-0.64072	0.061798	-0.08316	-0.059204	0.76202	-0.15732	-0.31525	0.11688	0.18143	0.5339	-0.2359	0.090179	-0.059052	-0.02655	0.73441	-0.14572	-0.045013	0.001373	-0.014038	-0.023804	0.095825	-0.032806	-0.001221	-0.000916
31.139	-0.028381	1.1263	-0.002899	0.03418	-0.11139	0.28366	0.093384	0.020599	-0.62943	0.061951	-0.063019	-0.051575	1.5298	-0.12741	0.091858	0.10071	0.097351	0.52978	-0.28107	0.048523	-0.072021	-0.029449	0.54413	-0.14175	-0.072327	0.008698	-0.016937	-0.025482	0.023041	-0.037537	0.001831	0.002136
31.14	-0.032196	1.1177	-0.063934	0.005798	-0.079803	0.55359	0.040436	0.00885	-0.56595	0.07309	-0.086365	-0.043793	1.0402	-0.079803	0.23758	0.094452	0.088959	0.54489	-0.32166	-0.033722	-0.061035	-0.029144	0.55298	-0.17685	-0.070801	0.016327	0.019989	-0.02121	-0.17029	0.014801	-0.001984	-0.00885
31.141	-0.028534	1.0864	-0.052185	-0.011139	-0.064087	0.63324	0.007477	0.021667	-0.52307	-0.026398	-0.047607	-0.028687	-0.29663	0.16205	0.35065	0.088654	0.07782	0.54474	-0.33264	-0.11108	-0.059509	-0.023193	0.61432	-0.16007	-0.062561	0.016785	0.014801	-0.021362	-0.20096	0.11078	0.003204	-0.013123
31.142	-0.041199	0.9996	-0.007324	-0.033112	-0.097656	0.86624	-0.072784	0.05188	-0.495	-0.056305	0.003815	-0.030823	-1.0024	-0.083618	0.2066	0.065918	0.041351	0.54779	-0.2652	-0.13977	-0.08255	-0.04364	0.60165	-0.19928	-0.061798	0.011292	-0.010834	-0.020447	-0.17532	0.16617	-0.003052	-0.000916
31.143	-0.045929	0.98404	-0.043488	-0.022888	-0.13565	0.79514	-0.056	0.061188	-0.40039	-0.021667	0.043182	-0.008545	-0.70557	0.014954	0.23529	0.054779	0.013733	0.52383	-0.3833	-0.088196	-0.064697	-0.044708	0.61905	-0.25101	-0.051422	0.004578	0.028076	-0.016632	-0.093231	0.13855	-0.005493	-0.012207
31.144	-0.036011	0.92956	-0.068054	0.023041	-0.16266	0.36743	-0.12375	0.033722	-0.36514	0.024414	0.037689	-0.002136	-1.0684	0.045471	0.041351	0.048523	0.021515	0.51407	-0.33295	-0.013428	-0.061951	-0.024261	0.77484	-0.22797	-0.068207	0.009155	0.061188	-0.016174	0.077972	0.083313	0.007935	-0.011597
31.145	-0.023193	0.89218	-0.034027	0.035553	-0.11246	0.086517	-0.19806	0.009918	-0.30197	0.041199	-0.046539	0.009155	-0.94559	-0.15488	0.016632	0.048676	-0.004578	0.54749	-0.5513	0.063629	-0.05127	-0.019226	0.91904	-0.1622	-0.050201	0.019684	0.045624	-0.014954	0.21484	0.005188	-0.002747	-0.015717
31.146	0.011139	0.86014	-0.12405	0.027771	0.049591	-0.48492	-0.26001	-0.025024	-0.1918	0.011597	-0.14145	0.021973	0.40451	0.002136	-0.017395	0.031281	-0.022278	0.61035	-0.72525	0.15808	-0.032654	-0.002441	1.0347	-0.061798	-0.043182	0.013123	0.010986	-0.016327	0.10513	-0.002594	-0.000458	-0.019836
31.147	0.032654	0.8577	-0.20645	0.023804	0.11505	-0.50797	-0.27481	-0.046234	-0.23193	0.027466	-0.17044	0.036621	0.83527	-0.13855	-0.020142	0.028381	0	0.60211	-0.79804	0.2327	-0.010376	0.037537	0.97458	-0.009308	0.010223	0.007019	0.032654	-0.006409	-0.2861	-0.062561	-0.001068	-0.013885
31.148	0.034637	0.88577	-0.23911	0.005493	0.055695	-0.063324	-0.2092	-0.038605	-0.33615	0.028381	0.027313	0.052795	0.40512	-0.065155	-0.18707	0.000458	0.016937	0.62668	-0.81802	0.18295	0.016479	0.045013	0.84305	0.038757	0.016479	0.009918	0.019379	-0.011749	-0.3154	-0.023499	-0.001984	-0.015259
31.149	0.0383	0.90805	-0.21759	0.005646	0.000153	-0.16571	-0.13229	-0.024414	-0.3598	0.052948	0.30472	0.059814	0.028839	0.030212	0.17349	-0.005188	0.026398	0.71182	-0.77042	0.29968	0.028687	0.072632	0.76858	0.089111	0.019836	0.012817	0.006104	-0.010681	-0.097961	-0.056763	-0.001526	-0.026093
31.15	0.03006	0.96268	-0.34149	0.002899	-0.030518	-0.16937	-0.021973	0.003357	-0.41351	0.052795	0.34119	0.081329	-0.2446	0.058899	0.78751	-0.014191	0.009155	0.73776	-0.79315	0.29053	0.009155	0.045013	0.85739	0.043488	-0.000763	0.011139	-0.002136	-0.003357	-0.041199	-0.010223	-0.001221	-0.029297
31.151	0.025482	1.0976	-0.22736	-0.005341	-0.025177	-0.36301	-0.007629	0.0177	-0.39627	0.007324	-0.20126	0.10498	-0.37628	-0.016632	0.16678	-0.001678	0.021057	0.74371	-0.7933	0.11169	0.004578	0.012512	0.81497	0.0354	-0.02182	0.010529	-0.016174	-0.014191	-0.026703	0.036163	-0.00351	-0.019226
31.152	0.030823	1.165	0.2652	0.010834	-0.044403	-0.32547	-0.12817	0.031586	-0.2214	-0.041504	-0.33234	0.089874	-0.18646	0.002747	0.27451	-0.013885	0.031586	0.82657	-0.71884	-0.034027	-0.000916	0.013885	0.87524	0.024719	-0.031738	-0.003967	-0.014038	-0.008392	0.044403	-0.002441	-0.000916	-0.027008
31.153	0.020142	1.1456	0.083923	0.055237	-0.063171	0.090637	-0.2626	0.066376	-0.017853	-0.079041	-0.16983	0.14236	0.10635	-0.03952	0.57175	-0.019684	0.044861	0.8429	-0.83695	-0.026855	0.015259	-0.001526	1.0191	-0.0177	-0.053711	-0.014648	-0.01236	-0.012665	0.13443	-0.083313	-0.003662	-0.018768
31.154	0.004425	1.1919	0.30914	0.005951	-0.083618	0.2713	-0.27222	0.067749	0.11322	-0.059509	0.054169	0.15091	0.14999	0.095825	-0.39688	-0.018005	0.071411	0.86502	-0.86182	-0.16464	0.002594	-0.011139	1.0521	-0.097504	-0.052948	-0.00061	0.02243	-0.009918	0.31036	-0.033569	-0.005493	-0.010681
31.155	-0.005798	1.2233	0.34439	-0.028992	-0.081635	0.26016	-0.27786	0.045013	0.17929	-0.065308	0.3891	0.17838	0.093231	0.16953	-0.5043	-0.032043	0.043182	0.91049	-0.81299	-0.31677	-0.010376	0.006866	1.1336	-0.1355	-0.050201	-0.005188	0.003357	-0.011444	0.18112	0.14191	-0.001984	-0.01358
31.156	-0.004883	1.1974	0.22354	-0.015259	-0.065918	0.31265	-0.31952	0.001068	0.073853	-0.001831	0.27863	0.17563	-0.20508	0.13962	-0.84671	-0.039978	0.012512	0.94406	-0.63187	-0.25711	-0.018768	0.011139	1.2288	-0.10895	-0.044556	0.000916	-0.011444	-0.005035	-0.17899	0.096283	-0.002136	-0.011597
31.157	0.006714	1.1011	0.1239	0	-0.11032	0.242	-0.3772	-0.023499	0.004578	0.032654	0.12421	0.16556	-0.058594	0.025482	-0.67169	-0.04837	-0.058441	0.9552	-0.86624	-0.045624	-0.030823	0.057678	1.1086	-0.1297	-0.059814	0.009155	-0.033875	-0.003662	-0.20996	-0.030518	-0.005493	-0.012512
